<?xml version="1.0" encoding="UTF-8"?>
<!DOCTYPE svg PUBLIC "-//W3C//DTD SVG 1.1//EN" "http://www.w3.org/Graphics/SVG/1.1/DTD/svg11.dtd">
<svg xmlns="http://www.w3.org/2000/svg" version="1.1" width="630px" height="343px" style="shape-rendering:geometricPrecision; text-rendering:geometricPrecision; image-rendering:optimizeQuality; fill-rule:evenodd; clip-rule:evenodd" xmlns:xlink="http://www.w3.org/1999/xlink">
<g><path style="opacity:0.945" fill="#e20612" d="M 237.5,17.5 C 254.194,17.2223 260.694,25.2223 257,41.5C 247.769,52.7889 238.102,53.1222 228,42.5C 223.429,31.0669 226.595,22.7335 237.5,17.5 Z"/></g>
<g><path style="opacity:0.973" fill="#000000" d="M 541.5,25.5 C 561.855,25.2178 582.188,25.7178 602.5,27C 612.009,28.5091 617.509,34.0091 619,43.5C 619.667,74.5 619.667,105.5 619,136.5C 616.527,149.959 608.36,156.459 594.5,156C 572.167,156.667 549.833,156.667 527.5,156C 516.239,155.64 509.073,150.14 506,139.5C 505.029,106.452 505.362,73.4524 507,40.5C 508.436,34.1296 512.269,29.963 518.5,28C 526.284,26.9751 533.951,26.1418 541.5,25.5 Z M 537.5,48.5 C 554.167,48.5 570.833,48.5 587.5,48.5C 587.5,76.8333 587.5,105.167 587.5,133.5C 570.833,133.5 554.167,133.5 537.5,133.5C 537.5,105.167 537.5,76.8333 537.5,48.5 Z"/></g>
<g><path style="opacity:0.968" fill="#000000" d="M 32.5,26.5 C 82.5011,26.3333 132.501,26.5 182.5,27C 191.571,28.2817 196.738,33.4484 198,42.5C 198.5,80.1652 198.667,117.832 198.5,155.5C 187.833,155.5 177.167,155.5 166.5,155.5C 166.5,119.833 166.5,84.1667 166.5,48.5C 152.167,48.5 137.833,48.5 123.5,48.5C 123.5,84.1667 123.5,119.833 123.5,155.5C 112.833,155.5 102.167,155.5 91.5,155.5C 91.5,119.833 91.5,84.1667 91.5,48.5C 77.1667,48.5 62.8333,48.5 48.5,48.5C 48.5,84.1667 48.5,119.833 48.5,155.5C 37.8333,155.5 27.1667,155.5 16.5,155.5C 16.3333,119.498 16.5,83.4985 17,47.5C 16.8785,36.35 22.0451,29.35 32.5,26.5 Z"/></g>
<g><path style="opacity:0.959" fill="#000000" d="M 286.5,26.5 C 297.167,26.5 307.833,26.5 318.5,26.5C 318.5,69.5 318.5,112.5 318.5,155.5C 307.833,155.5 297.167,155.5 286.5,155.5C 286.5,112.5 286.5,69.5 286.5,26.5 Z"/></g>
<g><path style="opacity:0.956" fill="#000000" d="M 372.5,26.5 C 384.186,26.1678 395.852,26.5011 407.5,27.5C 389.952,48.0933 372.285,68.5933 354.5,89C 370.745,110.823 386.745,132.823 402.5,155C 389.82,155.833 377.154,155.666 364.5,154.5C 349.657,133.472 335.324,112.139 321.5,90.5C 338.491,69.1736 355.491,47.8403 372.5,26.5 Z"/></g>
<g><path style="opacity:0.964" fill="#000000" d="M 431.5,26.5 C 453.167,26.5 474.833,26.5 496.5,26.5C 496.5,33.8333 496.5,41.1667 496.5,48.5C 479.5,48.5 462.5,48.5 445.5,48.5C 445.5,84.1667 445.5,119.833 445.5,155.5C 434.833,155.5 424.167,155.5 413.5,155.5C 413.333,119.832 413.5,84.1651 414,48.5C 414.21,36.4765 420.044,29.1432 431.5,26.5 Z"/></g>
<g><path style="opacity:0.959" fill="#000000" d="M 226.5,57.5 C 237.167,57.5 247.833,57.5 258.5,57.5C 258.5,90.1667 258.5,122.833 258.5,155.5C 247.833,155.5 237.167,155.5 226.5,155.5C 226.5,122.833 226.5,90.1667 226.5,57.5 Z"/></g>
<g><path style="opacity:0.941" fill="#e20612" d="M 558.5,74.5 C 574.397,74.321 580.897,81.9877 578,97.5C 572.909,106.423 565.409,109.256 555.5,106C 546.286,99.7723 544.119,91.6056 549,81.5C 551.529,78.1151 554.696,75.7818 558.5,74.5 Z"/></g>
<g><path style="opacity:0.847" fill="#000000" d="M 16.5,180.5 C 19.5645,179.182 22.7312,179.182 26,180.5C 30,187.833 34,195.167 38,202.5C 42.6983,195.299 47.1983,187.965 51.5,180.5C 54.1667,179.167 56.8333,179.167 59.5,180.5C 54.1984,189.632 48.6984,198.632 43,207.5C 42.5006,213.157 42.3339,218.824 42.5,224.5C 39.8333,224.5 37.1667,224.5 34.5,224.5C 34.666,219.156 34.4994,213.823 34,208.5C 28.392,198.934 22.5587,189.601 16.5,180.5 Z"/></g>
<g><path style="opacity:0.861" fill="#000000" d="M 133.5,179.5 C 138.179,179.334 142.845,179.501 147.5,180C 149.333,180.5 150.5,181.667 151,183.5C 155.401,196.87 159.901,210.204 164.5,223.5C 161.572,224.484 158.572,224.817 155.5,224.5C 154.5,220.5 153.5,216.5 152.5,212.5C 143.833,212.5 135.167,212.5 126.5,212.5C 125.828,216.188 124.995,219.855 124,223.5C 121.263,224.61 118.429,224.777 115.5,224C 120.192,210.924 124.692,197.758 129,184.5C 130.025,182.313 131.525,180.646 133.5,179.5 Z M 136.5,184.5 C 138.833,184.5 141.167,184.5 143.5,184.5C 145.425,191.943 147.759,199.277 150.5,206.5C 143.5,207.833 136.5,207.833 129.5,206.5C 131.838,199.154 134.171,191.821 136.5,184.5 Z"/></g>
<g><path style="opacity:0.834" fill="#000000" d="M 222.5,179.5 C 235.167,179.5 247.833,179.5 260.5,179.5C 260.66,181.199 260.494,182.866 260,184.5C 250.285,196.093 240.452,207.593 230.5,219C 240.494,219.5 250.494,219.666 260.5,219.5C 260.5,221.167 260.5,222.833 260.5,224.5C 247.167,224.5 233.833,224.5 220.5,224.5C 220.264,221.774 221.097,219.441 223,217.5C 232.542,206.96 241.709,196.127 250.5,185C 241.173,184.5 231.839,184.334 222.5,184.5C 222.5,182.833 222.5,181.167 222.5,179.5 Z"/></g>
<g><path style="opacity:0.817" fill="#000000" d="M 321.5,179.5 C 324.167,179.5 326.833,179.5 329.5,179.5C 329.5,194.833 329.5,210.167 329.5,225.5C 326.833,225.5 324.167,225.5 321.5,225.5C 321.5,210.167 321.5,194.833 321.5,179.5 Z"/></g>
<g><path style="opacity:0.917" fill="#000000" d="M 398.5,179.5 C 400.833,179.5 403.167,179.5 405.5,179.5C 405.5,192.833 405.5,206.167 405.5,219.5C 413.167,219.5 420.833,219.5 428.5,219.5C 428.5,221.167 428.5,222.833 428.5,224.5C 418.5,224.5 408.5,224.5 398.5,224.5C 398.5,209.5 398.5,194.5 398.5,179.5 Z"/></g>
<g><path style="opacity:0.933" fill="#000000" d="M 488.5,179.5 C 490.833,179.5 493.167,179.5 495.5,179.5C 495.5,194.833 495.5,210.167 495.5,225.5C 493.167,225.5 490.833,225.5 488.5,225.5C 488.5,210.167 488.5,194.833 488.5,179.5 Z"/></g>
<g><path style="opacity:0.848" fill="#000000" d="M 563.5,179.5 C 568.099,179.2 572.599,179.533 577,180.5C 581.561,193.286 586.394,205.952 591.5,218.5C 596.625,205.96 601.458,193.293 606,180.5C 610.401,179.533 614.901,179.2 619.5,179.5C 619.5,194.833 619.5,210.167 619.5,225.5C 616.833,225.5 614.167,225.5 611.5,225.5C 611.667,212.496 611.5,199.496 611,186.5C 606.5,198.833 602,211.167 597.5,223.5C 593.5,224.833 589.5,224.833 585.5,223.5C 581.148,210.605 576.315,197.938 571,185.5C 570.5,198.496 570.333,211.496 570.5,224.5C 568.167,224.5 565.833,224.5 563.5,224.5C 563.5,209.5 563.5,194.5 563.5,179.5 Z"/></g>
<g><path style="opacity:0.872" fill="#e20612" d="M 392.5,261.5 C 394.467,261.261 396.301,261.594 398,262.5C 398.333,272.5 398.667,282.5 399,292.5C 403.31,286.689 407.81,281.023 412.5,275.5C 417.89,274.399 419.39,276.399 417,281.5C 413.709,285.259 410.543,289.093 407.5,293C 410.987,297.155 414.487,301.322 418,305.5C 420.436,310.397 418.936,312.564 413.5,312C 408.289,306.458 403.456,300.625 399,294.5C 398.667,300.167 398.333,305.833 398,311.5C 396,312.833 394,312.833 392,311.5C 391.182,294.759 391.349,278.093 392.5,261.5 Z"/></g>
<g><path style="opacity:0.816" fill="#e20612" d="M 377.5,263.5 C 384.004,263.138 385.671,265.638 382.5,271C 375.745,271.756 374.078,269.256 377.5,263.5 Z"/></g>
<g><path style="opacity:0.855" fill="#e20612" d="M 330.5,274.5 C 333.85,274.335 337.183,274.502 340.5,275C 342.286,275.785 343.786,276.951 345,278.5C 351.249,273.566 357.749,273.232 364.5,277.5C 365.861,279.028 367.028,280.695 368,282.5C 368.667,292.167 368.667,301.833 368,311.5C 365.733,312.935 363.733,312.602 362,310.5C 361.667,302.167 361.333,293.833 361,285.5C 357.829,280.586 354.163,280.253 350,284.5C 349.667,292.833 349.333,301.167 349,309.5C 347.174,313.037 344.84,313.371 342,310.5C 341.667,302.167 341.333,293.833 341,285.5C 337.829,280.586 334.163,280.253 330,284.5C 329.667,293.167 329.333,301.833 329,310.5C 326.667,313.167 324.333,313.167 322,310.5C 321.333,302.5 321.333,294.5 322,286.5C 322.659,280.813 325.492,276.813 330.5,274.5 Z"/></g>
<g><path style="opacity:0.867" fill="#e20612" d="M 378.5,274.5 C 380.144,274.286 381.644,274.62 383,275.5C 383.667,287.5 383.667,299.5 383,311.5C 381,312.833 379,312.833 377,311.5C 376.333,299.833 376.333,288.167 377,276.5C 377.717,275.956 378.217,275.289 378.5,274.5 Z"/></g>
<g><path style="opacity:0.883" fill="#e20612" d="M 433.5,274.5 C 435.857,274.337 438.19,274.503 440.5,275C 441.76,276.814 441.76,278.647 440.5,280.5C 435.982,280.426 432.816,282.426 431,286.5C 430.667,294.5 430.333,302.5 430,310.5C 428.267,312.602 426.267,312.935 424,311.5C 423.333,302.167 423.333,292.833 424,283.5C 425.871,279.006 429.038,276.006 433.5,274.5 Z"/></g>
<g><path style="opacity:0.844" fill="#e20612" d="M 459.5,274.5 C 465.024,273.898 470.19,274.898 475,277.5C 475.923,280.278 475.089,282.278 472.5,283.5C 465.035,279.319 458.535,280.652 453,287.5C 449.343,298.365 453.177,305.032 464.5,307.5C 466.115,306.846 467.782,306.346 469.5,306C 475.144,300.688 480.477,295.021 485.5,289C 488.125,288.277 489.792,289.277 490.5,292C 487.373,297.081 483.873,301.915 480,306.5C 469.046,316.072 458.38,315.739 448,305.5C 441.287,291.13 445.121,280.796 459.5,274.5 Z"/></g>
<g><path style="opacity:0.869" fill="#e20612" d="M 489.5,274.5 C 495.852,273.715 501.686,275.048 507,278.5C 508.446,274.349 510.78,273.682 514,276.5C 514.667,291.167 514.667,305.833 514,320.5C 508.381,334.706 498.547,338.539 484.5,332C 480.65,329.006 480.65,326.173 484.5,323.5C 492.067,330.448 499.234,330.115 506,322.5C 507.457,318.259 507.791,313.926 507,309.5C 500.588,313.658 493.755,314.491 486.5,312C 481.385,309.758 481.218,307.258 486,304.5C 497.363,309.736 504.53,306.236 507.5,294C 505.016,282.428 498.349,278.761 487.5,283C 482.694,287.626 478.361,292.626 474.5,298C 471.556,300.196 469.556,299.529 468.5,296C 472.999,286.335 479.999,279.169 489.5,274.5 Z"/></g>
<g><path style="opacity:0.877" fill="#e20612" d="M 530.5,274.5 C 532.857,274.337 535.19,274.503 537.5,275C 538.576,276.726 538.743,278.559 538,280.5C 534.616,280.976 531.616,282.31 529,284.5C 527.752,293.425 527.085,302.425 527,311.5C 525.274,312.576 523.441,312.743 521.5,312C 520.35,302.911 520.183,293.745 521,284.5C 523.022,279.98 526.189,276.647 530.5,274.5 Z"/></g>
<g><path style="opacity:0.859" fill="#e20612" d="M 544.5,274.5 C 546.722,274.178 548.556,274.845 550,276.5C 550.333,284.167 550.667,291.833 551,299.5C 553.837,305.542 558.337,307.042 564.5,304C 565.701,303.097 566.535,301.931 567,300.5C 567.333,292.5 567.667,284.5 568,276.5C 570.333,273.833 572.667,273.833 575,276.5C 576.115,286.321 575.448,295.988 573,305.5C 567.996,312.023 561.496,314.19 553.5,312C 549,310.167 545.833,307 544,302.5C 543.195,293.089 543.362,283.756 544.5,274.5 Z"/></g>
<g><path style="opacity:0.901" fill="#e20612" d="M 582.5,274.5 C 585.808,273.974 587.974,275.307 589,278.5C 599.104,272.211 608.104,273.545 616,282.5C 621.334,293.161 619.501,302.328 610.5,310C 603.392,313.489 596.392,313.322 589.5,309.5C 588.668,317.479 588.168,325.479 588,333.5C 586,334.833 584,334.833 582,333.5C 581.18,313.76 581.347,294.093 582.5,274.5 Z M 596.5,281.5 C 607.812,280.979 612.646,286.312 611,297.5C 606.909,305.879 600.742,307.712 592.5,303C 586.229,294.29 587.563,287.123 596.5,281.5 Z"/></g>
</svg>
